<svg width="24" height="24" viewBox="0 0 24 24" fill="none" xmlns="http://www.w3.org/2000/svg">
<path d="M9 9C10.1046 9 11 8.10457 11 7C11 5.89543 10.1046 5 9 5C7.89543 5 7 5.89543 7 7C7 8.10457 7.89543 9 9 9Z" fill="white" fill-opacity="0.101961" stroke="white" stroke-opacity="0.701961" stroke-width="2" stroke-linecap="round" stroke-linejoin="round"/>
<path d="M7.2 7.9L3 11V20C3 20.6 3.4 21 4 21H20C20.6 21 21 20.6 21 20V11C21 9 18 5 14 3L10.4 5.6" fill="white" fill-opacity="0.101961"/>
<path d="M7.2 7.9L3 11V20C3 20.6 3.4 21 4 21H20C20.6 21 21 20.6 21 20V11C21 9 18 5 14 3L10.4 5.6" stroke="white" stroke-opacity="0.701961" stroke-width="2" stroke-linecap="round" stroke-linejoin="round"/>
<path d="M16 13H3Z" fill="white" fill-opacity="0.101961"/>
<path d="M16 13H3" stroke="white" stroke-opacity="0.701961" stroke-width="2" stroke-linecap="round" stroke-linejoin="round"/>
<path d="M16 17H3Z" fill="white" fill-opacity="0.101961"/>
<path d="M16 17H3" stroke="white" stroke-opacity="0.701961" stroke-width="2" stroke-linecap="round" stroke-linejoin="round"/>
</svg>
