<svg width="24" height="24" viewBox="0 0 24 24" fill="none" xmlns="http://www.w3.org/2000/svg">
<path d="M15.6 2.69996C13.4612 1.86904 11.1017 1.79892 8.91731 2.50138C6.73294 3.20383 4.85658 4.63611 3.60301 6.55796C2.34943 8.4798 1.7949 10.7743 2.03245 13.0565C2.27 15.3387 3.28516 17.4698 4.90765 19.0923C6.53014 20.7148 8.66124 21.73 10.9435 21.9675C13.2257 22.2051 15.5202 21.6505 17.442 20.397C19.3638 19.1434 20.7961 17.267 21.4986 15.0826C22.201 12.8983 22.1309 10.5388 21.3 8.39996" fill="white" fill-opacity="0.101961"/>
<path d="M15.6 2.69996C13.4612 1.86904 11.1017 1.79892 8.91731 2.50138C6.73294 3.20383 4.85658 4.63611 3.60301 6.55796C2.34943 8.4798 1.7949 10.7743 2.03245 13.0565C2.27 15.3387 3.28516 17.4698 4.90765 19.0923C6.53014 20.7148 8.66124 21.73 10.9435 21.9675C13.2257 22.2051 15.5202 21.6505 17.442 20.397C19.3638 19.1434 20.7961 17.267 21.4986 15.0826C22.201 12.8983 22.1309 10.5388 21.3 8.39996" stroke="white" stroke-opacity="0.701961" stroke-width="2" stroke-linecap="round" stroke-linejoin="round"/>
<path d="M12 14C13.1046 14 14 13.1046 14 12C14 10.8954 13.1046 10 12 10C10.8954 10 10 10.8954 10 12C10 13.1046 10.8954 14 12 14Z" fill="white" fill-opacity="0.101961" stroke="white" stroke-opacity="0.701961" stroke-width="2" stroke-linecap="round" stroke-linejoin="round"/>
<path d="M13.4 10.6L19 5Z" fill="white" fill-opacity="0.101961"/>
<path d="M13.4 10.6L19 5" stroke="white" stroke-opacity="0.701961" stroke-width="2" stroke-linecap="round" stroke-linejoin="round"/>
</svg>
