<svg width="24" height="24" viewBox="0 0 24 24" fill="none" xmlns="http://www.w3.org/2000/svg">
<path d="M4 19.5V4.5C4 3.83696 4.26339 3.20107 4.73223 2.73223C5.20107 2.26339 5.83696 2 6.5 2H14" fill="white" fill-opacity="0.101961"/>
<path d="M4 19.5V4.5C4 3.83696 4.26339 3.20107 4.73223 2.73223C5.20107 2.26339 5.83696 2 6.5 2H14" stroke="white" stroke-opacity="0.701961" stroke-width="2" stroke-linecap="round" stroke-linejoin="round"/>
<path d="M20 8V22H6.5C5.83696 22 5.20107 21.7366 4.73223 21.2678C4.26339 20.7989 4 20.163 4 19.5C4 18.837 4.26339 18.2011 4.73223 17.7322C5.20107 17.2634 5.83696 17 6.5 17H20" fill="white" fill-opacity="0.101961"/>
<path d="M20 8V22H6.5C5.83696 22 5.20107 21.7366 4.73223 21.2678C4.26339 20.7989 4 20.163 4 19.5C4 18.837 4.26339 18.2011 4.73223 17.7322C5.20107 17.2634 5.83696 17 6.5 17H20" stroke="white" stroke-opacity="0.701961" stroke-width="2" stroke-linecap="round" stroke-linejoin="round"/>
<path d="M14 10C15.1046 10 16 9.10457 16 8C16 6.89543 15.1046 6 14 6C12.8954 6 12 6.89543 12 8C12 9.10457 12.8954 10 14 10Z" fill="white" fill-opacity="0.101961" stroke="white" stroke-opacity="0.701961" stroke-width="2" stroke-linecap="round" stroke-linejoin="round"/>
<path d="M20 2L15.5 6.5Z" fill="white" fill-opacity="0.101961"/>
<path d="M20 2L15.5 6.5" stroke="white" stroke-opacity="0.701961" stroke-width="2" stroke-linecap="round" stroke-linejoin="round"/>
<path d="M19 3L20 4Z" fill="white" fill-opacity="0.101961"/>
<path d="M19 3L20 4" stroke="white" stroke-opacity="0.701961" stroke-width="2" stroke-linecap="round" stroke-linejoin="round"/>
</svg>
