<svg width="24" height="24" viewBox="0 0 24 24" fill="none" xmlns="http://www.w3.org/2000/svg">
<path d="M19.07 4.93005C17.5129 3.37126 15.4846 2.37036 13.3001 2.08284C11.1157 1.79532 8.89744 2.23728 6.99 3.34005" fill="white" fill-opacity="0.101961"/>
<path d="M19.07 4.93005C17.5129 3.37126 15.4846 2.37036 13.3001 2.08284C11.1157 1.79532 8.89744 2.23728 6.99 3.34005" stroke="white" stroke-opacity="0.701961" stroke-width="2" stroke-linecap="round" stroke-linejoin="round"/>
<path d="M4 6H4.01Z" fill="white" fill-opacity="0.101961"/>
<path d="M4 6H4.01" stroke="white" stroke-opacity="0.701961" stroke-width="2" stroke-linecap="round" stroke-linejoin="round"/>
<path d="M2.29 9.61998C1.91509 11.147 1.90558 12.741 2.26223 14.2724C2.61887 15.8038 3.33163 17.2296 4.34263 18.4339C5.35364 19.6382 6.63438 20.5871 8.0809 21.2036C9.52741 21.8201 11.0989 22.0868 12.6678 21.982C14.2368 21.8773 15.7589 21.404 17.1106 20.6007C18.4623 19.7973 19.6055 18.6866 20.4474 17.3585C21.2893 16.0305 21.8062 14.5227 21.9561 12.9574C22.1059 11.3922 21.8846 9.81364 21.31 8.34998" fill="white" fill-opacity="0.101961"/>
<path d="M2.29 9.61998C1.91509 11.147 1.90558 12.741 2.26223 14.2724C2.61887 15.8038 3.33163 17.2296 4.34263 18.4339C5.35364 19.6382 6.63438 20.5871 8.0809 21.2036C9.52741 21.8201 11.0989 22.0868 12.6678 21.982C14.2368 21.8773 15.7589 21.404 17.1106 20.6007C18.4623 19.7973 19.6055 18.6866 20.4474 17.3585C21.2893 16.0305 21.8062 14.5227 21.9561 12.9574C22.1059 11.3922 21.8846 9.81364 21.31 8.34998" stroke="white" stroke-opacity="0.701961" stroke-width="2" stroke-linecap="round" stroke-linejoin="round"/>
<path d="M16.24 7.76004C15.6645 7.18121 14.977 6.72588 14.2194 6.42191C13.4619 6.11795 12.6503 5.97175 11.8344 5.99225C11.0184 6.01275 10.2152 6.19953 9.47387 6.54115C8.73256 6.88277 8.06876 7.37205 7.52306 7.97906C6.97737 8.58607 6.56127 9.29803 6.30021 10.0714C6.03916 10.8448 5.93865 11.6633 6.00482 12.4768C6.071 13.2903 6.30247 14.0818 6.68508 14.8028C7.06768 15.5238 7.59338 16.1592 8.23 16.67" fill="white" fill-opacity="0.101961"/>
<path d="M16.24 7.76004C15.6645 7.18121 14.977 6.72588 14.2194 6.42191C13.4619 6.11795 12.6503 5.97175 11.8344 5.99225C11.0184 6.01275 10.2152 6.19953 9.47387 6.54115C8.73256 6.88277 8.06876 7.37205 7.52306 7.97906C6.97737 8.58607 6.56127 9.29803 6.30021 10.0714C6.03916 10.8448 5.93865 11.6633 6.00482 12.4768C6.071 13.2903 6.30247 14.0818 6.68508 14.8028C7.06768 15.5238 7.59338 16.1592 8.23 16.67" stroke="white" stroke-opacity="0.701961" stroke-width="2" stroke-linecap="round" stroke-linejoin="round"/>
<path d="M12 18H12.01Z" fill="white" fill-opacity="0.101961"/>
<path d="M12 18H12.01" stroke="white" stroke-opacity="0.701961" stroke-width="2" stroke-linecap="round" stroke-linejoin="round"/>
<path d="M17.99 11.66C18.0444 12.6114 17.8714 13.5621 17.4854 14.4333C17.0993 15.3045 16.5113 16.0712 15.77 16.67" fill="white" fill-opacity="0.101961"/>
<path d="M17.99 11.66C18.0444 12.6114 17.8714 13.5621 17.4854 14.4333C17.0993 15.3045 16.5113 16.0712 15.77 16.67" stroke="white" stroke-opacity="0.701961" stroke-width="2" stroke-linecap="round" stroke-linejoin="round"/>
<path d="M12 14C13.1046 14 14 13.1046 14 12C14 10.8954 13.1046 10 12 10C10.8954 10 10 10.8954 10 12C10 13.1046 10.8954 14 12 14Z" fill="white" fill-opacity="0.101961" stroke="white" stroke-opacity="0.701961" stroke-width="2" stroke-linecap="round" stroke-linejoin="round"/>
<path d="M13.41 10.5901L19.07 4.93005Z" fill="white" fill-opacity="0.101961"/>
<path d="M13.41 10.5901L19.07 4.93005" stroke="white" stroke-opacity="0.701961" stroke-width="2" stroke-linecap="round" stroke-linejoin="round"/>
</svg>
