<svg width="24" height="24" viewBox="0 0 24 24" fill="none" xmlns="http://www.w3.org/2000/svg">
<path fill-rule="evenodd" clip-rule="evenodd" d="M12.7575 4.87216L6.75746 6.37216C6.3123 6.48345 6 6.88343 6 7.3423V20H14V9.99997V7.99997V5.8423C14 5.19173 13.3886 4.71437 12.7575 4.87216ZM16 9.99997V20H18V11C18 10.4477 17.5523 9.99997 17 9.99997H16ZM20 22H21C21.5523 22 22 21.5523 22 21C22 20.4477 21.5523 20 21 20H20V11C20 9.34312 18.6569 7.99997 17 7.99997H16V5.8423C16 3.89059 14.1658 2.45851 12.2724 2.93187L6.27239 4.43187C4.93689 4.76575 4 5.9657 4 7.3423V20H3C2.44772 20 2 20.4477 2 21C2 21.5523 2.44772 22 3 22H4H6H14H16H18H20Z" fill="white" fill-opacity="0.101961"/>
<path d="M12.3936 3.41699C13.9714 3.02253 15.5 4.21635 15.5 5.84277V8.5H17C18.3807 8.5 19.5 9.61929 19.5 11V20.5H21C21.2761 20.5 21.5 20.7239 21.5 21C21.5 21.2761 21.2761 21.5 21 21.5H3C2.72387 21.5 2.50002 21.2761 2.5 21C2.5 20.7239 2.72386 20.5 3 20.5H4.5V7.34277C4.5 6.19564 5.2807 5.19526 6.39355 4.91699L12.3936 3.41699ZM14.5 5.84277C14.5 4.86691 13.5825 4.15004 12.6357 4.38672L6.63574 5.88672C5.96817 6.05378 5.5 6.65459 5.5 7.34277V20.5H14.5V5.84277ZM15.5 20.5H18.5V11C18.5 10.1716 17.8284 9.5 17 9.5H15.5V20.5Z" stroke="white" stroke-opacity="0.701961"/>
<path fill-rule="evenodd" clip-rule="evenodd" d="M8 17C8 16.4477 8.44772 16 9 16H11C11.5523 16 12 16.4477 12 17C12 17.5523 11.5523 18 11 18H9C8.44772 18 8 17.5523 8 17Z" fill="white" fill-opacity="0.101961" stroke="white" stroke-opacity="0.701961" stroke-linecap="round"/>
<path fill-rule="evenodd" clip-rule="evenodd" d="M8 13C8 12.4477 8.44772 12 9 12H11C11.5523 12 12 12.4477 12 13C12 13.5523 11.5523 14 11 14H9C8.44772 14 8 13.5523 8 13Z" fill="white" fill-opacity="0.101961" stroke="white" stroke-opacity="0.701961" stroke-linecap="round"/>
<path fill-rule="evenodd" clip-rule="evenodd" d="M8 9C8 8.44772 8.44772 8 9 8H11C11.5523 8 12 8.44772 12 9C12 9.55228 11.5523 10 11 10H9C8.44772 10 8 9.55228 8 9Z" fill="white" fill-opacity="0.101961" stroke="white" stroke-opacity="0.701961" stroke-linecap="round"/>
</svg>
